HIERARCHY
ROOT link
{
	OFFSET 0.000000 0.000000 0.000000
	CHANNELS 6 Xposition Yposition Zposition Xrotation Yrotation Zrotation
	JOINT pasted__joint1
	{
		OFFSET 41.518826 8.544816 64.802582
		CHANNELS 3 Xrotation Yrotation Zrotation
		JOINT pasted__joint1a
		{
			OFFSET 33.417561 20.722454 50.624077
			CHANNELS 3 Xrotation Yrotation Zrotation
			JOINT pasted__joint1b
			{
				OFFSET 32.315689 43.370197 45.002876
				CHANNELS 3 Xrotation Yrotation Zrotation
				JOINT pasted__joint1c
				{
					OFFSET 29.709106 58.452698 35.935974
					CHANNELS 3 Xrotation Yrotation Zrotation
					End Site
					{
						OFFSET 0.000000 1.847656 0.000000
					}
				}
			}
		}
	}
	JOINT pasted__joint2
	{
		OFFSET 73.136429 10.693802 18.235542
		CHANNELS 3 Xrotation Yrotation Zrotation
		JOINT pasted__joint2a
		{
			OFFSET 40.413513 26.251923 10.883640
			CHANNELS 3 Xrotation Yrotation Zrotation
			JOINT pasted__joint12b
			{
				OFFSET 40.033478 29.033585 20.889858
				CHANNELS 3 Xrotation Yrotation Zrotation
				JOINT pasted__joint2c
				{
					OFFSET 24.956787 52.521515 21.669830
					CHANNELS 3 Xrotation Yrotation Zrotation
					End Site
					{
						OFFSET 0.000000 1.847656 0.000000
					}
				}
			}
		}
	}
	JOINT pasted__joint3
	{
		OFFSET 85.456772 20.043390 -15.126308
		CHANNELS 3 Xrotation Yrotation Zrotation
		JOINT pasted__joint3a
		{
			OFFSET 57.172714 32.287102 -6.535957
			CHANNELS 3 Xrotation Yrotation Zrotation
			JOINT pasted__joint3b
			{
				OFFSET 62.130341 56.716530 -9.764475
				CHANNELS 3 Xrotation Yrotation Zrotation
				JOINT pasted__joint3c
				{
					OFFSET 45.792160 91.623940 -8.026148
					CHANNELS 3 Xrotation Yrotation Zrotation
					End Site
					{
						OFFSET 0.000000 1.847656 0.000000
					}
				}
			}
		}
	}
	JOINT pasted__joint4
	{
		OFFSET 58.520325 13.656683 -56.617020
		CHANNELS 3 Xrotation Yrotation Zrotation
		JOINT pasted__joint4a
		{
			OFFSET 45.099182 52.991432 -44.231812
			CHANNELS 3 Xrotation Yrotation Zrotation
			JOINT pasted__joint4b
			{
				OFFSET 42.698456 79.661148 -26.378380
				CHANNELS 3 Xrotation Yrotation Zrotation
				End Site
				{
					OFFSET 0.000000 1.847656 0.000000
				}
			}
		}
	}
	JOINT pasted__joint5
	{
		OFFSET -42.998146 14.250694 -71.780006
		CHANNELS 3 Xrotation Yrotation Zrotation
		JOINT pasted__joint5a
		{
			OFFSET -34.349236 34.378502 -63.637245
			CHANNELS 3 Xrotation Yrotation Zrotation
			JOINT pasted__joint5b
			{
				OFFSET -23.054420 48.944473 -65.211227
				CHANNELS 3 Xrotation Yrotation Zrotation
				End Site
				{
					OFFSET 0.000000 1.847656 0.000000
				}
			}
		}
	}
	JOINT pasted__joint6
	{
		OFFSET -52.323193 16.423960 67.810669
		CHANNELS 3 Xrotation Yrotation Zrotation
		JOINT pasted__joint6a
		{
			OFFSET -28.961384 27.687620 40.976059
			CHANNELS 3 Xrotation Yrotation Zrotation
			JOINT pasted__joint6b
			{
				OFFSET -40.030281 43.750481 46.806229
				CHANNELS 3 Xrotation Yrotation Zrotation
				JOINT pasted__joint6c
				{
					OFFSET -43.983940 72.793655 36.817154
					CHANNELS 3 Xrotation Yrotation Zrotation
					End Site
					{
						OFFSET 0.000000 1.847656 0.000000
					}
				}
			}
		}
	}
	JOINT pasted__joint7
	{
		OFFSET -80.894478 23.409840 3.238891
		CHANNELS 3 Xrotation Yrotation Zrotation
		JOINT pasted__joint7a
		{
			OFFSET -63.617455 39.896427 0.553939
			CHANNELS 3 Xrotation Yrotation Zrotation
			JOINT pasted__joint7b
			{
				OFFSET -36.160263 58.133446 5.699441
				CHANNELS 3 Xrotation Yrotation Zrotation
				JOINT pasted__joint7c
				{
					OFFSET -48.937927 68.797653 16.797140
					CHANNELS 3 Xrotation Yrotation Zrotation
					End Site
					{
						OFFSET 0.000000 1.847656 0.000000
					}
				}
			}
		}
	}
	JOINT pasted__joint8
	{
		OFFSET -75.021332 11.883988 -45.837109
		CHANNELS 3 Xrotation Yrotation Zrotation
		JOINT pasted__joint8a
		{
			OFFSET -59.332306 26.115543 -35.177685
			CHANNELS 3 Xrotation Yrotation Zrotation
			JOINT pasted__joint8b
			{
				OFFSET -52.062027 37.287914 -29.061607
				CHANNELS 3 Xrotation Yrotation Zrotation
				End Site
				{
					OFFSET 0.000000 1.847656 0.000000
				}
			}
		}
	}
	JOINT pasted__joint9
	{
		OFFSET 24.757936 13.656683 -82.956070
		CHANNELS 3 Xrotation Yrotation Zrotation
		JOINT pasted__joint9a
		{
			OFFSET 18.511824 34.290581 -66.427322
			CHANNELS 3 Xrotation Yrotation Zrotation
			JOINT pasted__joint9b
			{
				OFFSET 9.743271 54.983414 -82.010605
				CHANNELS 3 Xrotation Yrotation Zrotation
				End Site
				{
					OFFSET 0.000000 1.847656 0.000000
				}
			}
		}
	}
}
MOTION
Frames: 7
Frame Time: 0.041667
0.000000 0.000000 0.000000 -0.000000 0.000000 -0.000000 12.459034 -0.627046 -9.603402 14.146410 0.666772 -14.935713 10.903277 1.652520 -6.868588 16.053274 -0.860759 -14.309006 1.944214 -4.455400 -24.595209 5.162764 1.833129 -13.138563 7.707556 2.701692 -16.961778 0.000000 -0.000000 -0.000000 -0.000000 0.000000 -33.962648 -0.000000 0.000000 -9.112604 -0.000000 0.000000 -20.895313 -0.000000 0.000000 -25.146492 -24.569575 7.845269 -26.827788 -31.558575 -24.558615 -5.045518 -0.000001 0.000000 -0.000000 -25.566185 -2.808373 11.751349 -0.000001 0.000000 0.000001 -61.053394 -17.076878 21.468941 25.014395 5.338312 16.012269 3.695596 0.553205 2.718650 17.022927 5.613389 13.167358 -0.000002 -0.000000 -0.000001 -0.000000 0.000000 32.844693 -0.000000 0.000000 25.429418 -0.000000 0.000000 4.330413 -6.728733 1.164218 -45.978402 -8.485523 -0.047887 16.531848 -5.400187 0.465073 12.492615 -0.000000 -0.000001 0.000002 -20.879770 -0.858946 -9.356898 -12.844599 -1.713210 -3.924266 -9.387958 -1.634324 -3.654523 
0.000000 0.000000 0.000000 -0.000000 0.000000 -0.000000 11.749859 -0.160568 -9.116112 13.553354 0.979298 -14.416771 10.299243 1.763177 -6.419940 15.103565 -0.582014 -13.465524 1.796572 -4.222313 -23.671492 4.981676 1.853943 -12.628250 7.381699 2.838684 -16.259042 -0.000001 -0.000001 0.000003 -0.016787 0.004929 -32.721561 0.045314 -0.125245 -6.630729 0.159891 -0.099473 -20.159833 -0.000000 -0.000000 -23.643219 -23.993054 7.144760 -26.127137 -30.336504 -24.730906 -3.891700 1.068136 -0.535715 1.061156 -24.507477 -2.311877 11.337863 0.588057 0.236391 -0.270467 -55.483952 -12.460534 20.826616 22.036852 3.138448 14.059458 3.273027 0.392279 2.462449 16.361870 5.329771 13.049515 -0.000000 -0.000000 -0.000002 -0.017808 -0.000988 29.082078 -0.000000 0.000000 22.272928 -0.000000 -0.000000 1.839539 -6.728733 1.164218 -45.978402 -8.019556 0.282727 15.658048 -5.020341 0.638958 11.711801 2.026141 1.337585 -3.312163 -19.790905 -1.364556 -9.165106 -10.433718 -1.888537 -3.713251 -5.139506 -3.070655 -3.142852 
0.000000 0.000000 0.000000 -0.000000 0.000000 -0.000000 9.702005 0.726242 -7.637653 11.884841 1.788555 -12.952407 8.614341 2.026108 -5.166567 13.902842 -0.273307 -12.395420 1.352127 -3.613924 -21.092280 4.474366 1.896402 -11.194323 6.459532 3.186342 -14.287463 0.000001 0.000000 -0.000000 -0.040623 0.010597 -29.244459 0.198832 -0.474946 -3.514388 0.348664 -0.278635 -18.098372 -0.000000 -0.000000 -21.749479 -22.324818 5.275880 -24.119483 -27.318726 -24.587902 -1.603796 2.445378 -1.158725 2.428102 -21.540270 -1.004650 10.121779 2.232578 0.504269 -1.048681 -48.440169 -7.130425 19.097451 18.121282 0.570380 10.950274 2.085220 -0.038301 1.739122 14.515388 4.510843 12.482347 0.000002 0.000000 -0.000000 -0.031487 -0.003237 24.336961 -0.000000 0.000000 18.294199 -0.000000 -0.000000 -1.297464 -6.728733 1.164218 -45.978409 -6.684488 1.116408 13.192575 -3.939571 1.069021 9.530683 4.778661 2.678518 -7.598924 -16.696461 -2.378172 -8.441053 -7.380787 -2.098306 -3.234084 0.242904 -4.777152 -2.233610 
0.000000 0.000000 0.000000 -0.000000 0.000000 -0.000000 6.495358 1.762324 -5.275983 9.280390 2.858451 -10.649064 6.026349 2.285930 -3.231082 12.501125 0.026813 -11.144523 0.578280 -2.782307 -17.138504 3.705536 1.915774 -9.008595 5.024743 3.595934 -11.259498 -0.000001 -0.000000 0.000000 -0.074025 0.004954 -23.929025 0.486907 -0.978814 0.095115 0.583861 -0.496305 -14.948253 0.000000 0.000000 -19.549265 -19.596470 2.692083 -20.896827 -22.888801 -23.966048 1.522105 4.078636 -1.799155 4.051110 -16.926402 0.724985 8.073160 4.751568 0.715082 -2.255935 -40.030909 -1.805430 15.945784 13.269300 -2.190405 5.499891 0.248200 -0.642179 0.602923 11.698824 3.193184 10.835105 -0.000001 0.000001 0.000002 -0.037934 -0.006276 18.829054 0.000000 -0.000000 13.678052 -0.000000 -0.000000 -4.939411 -6.728733 1.164219 -45.978405 -4.541054 2.170301 9.368834 -2.245770 1.567193 6.179868 8.207903 3.721248 -12.706104 -11.916121 -3.660629 -7.154437 -3.826016 -2.285291 -2.522854 6.556072 -6.562711 -0.823654 
0.000000 0.000000 0.000000 -0.000000 0.000000 -0.000000 2.330786 2.636374 -2.149534 5.881902 3.921522 -7.631095 2.726981 2.378357 -0.759877 10.952972 0.285173 -9.763405 -0.547186 -1.911453 -12.094685 2.735636 1.862097 -6.229410 3.167292 3.915425 -7.394280 -0.000000 0.000000 -0.000000 -0.115345 -0.014410 -17.182833 0.927608 -1.580360 4.070851 0.868091 -0.729634 -10.950561 -0.000000 -0.000000 -17.133220 -15.836541 -0.100236 -16.556307 -17.464049 -22.703380 5.136460 5.915003 -2.396198 5.877290 -10.935018 2.422267 5.188008 7.953858 0.769855 -3.808697 -30.355741 2.697071 11.286391 7.290408 -4.597452 -4.548118 -2.112167 -1.305889 -0.884559 8.096110 1.446189 6.239969 -0.000000 0.000000 -0.000000 -0.036649 -0.018184 12.780504 -0.000000 0.000000 8.603936 0.000000 0.000000 -8.944274 -6.728733 1.164219 -45.978409 -1.681441 3.099467 4.430508 -0.035183 1.916142 1.896320 12.184904 4.180192 -18.447547 -5.763981 -4.940073 -5.300909 0.081444 -2.386625 -1.631848 13.590988 -8.204815 1.138218 
0.000000 0.000000 0.000000 -0.000000 0.000000 -0.000000 -2.546650 3.054861 1.551624 1.862041 4.719803 -4.047175 -1.067408 2.142429 2.080291 9.315681 0.479804 -8.302232 -2.019750 -1.196391 -6.246789 1.636575 1.692215 -3.022120 1.004995 3.998389 -2.918856 -0.000000 0.000000 -0.000000 -0.151547 -0.050709 -9.396726 1.523614 -2.204332 8.270897 1.208377 -0.949545 -6.333997 -0.000000 0.000000 -14.587223 -11.142388 -2.556293 -11.224527 -11.484051 -20.721266 8.856176 7.894298 -2.898124 7.846497 -3.875015 3.625495 1.568590 11.651951 0.582369 -5.601749 -19.693486 5.611533 5.353786 0.809765 -4.928717 -14.058339 -4.881047 -1.913553 -2.668886 3.729475 0.016725 -2.065066 0.000000 0.000000 0.000000 -0.032992 -0.036857 6.406507 -0.000000 0.000000 3.259728 0.000000 -0.000000 -13.163878 -6.728734 1.164219 -45.978409 1.745688 3.576029 -1.331744 2.542639 1.923444 -3.051753 16.500738 3.853946 -24.560771 1.416849 -5.927095 -2.945812 4.206584 -2.360749 -0.623866 21.111835 -9.503786 3.616650 
0.000000 0.000000 0.000000 -0.000000 0.000000 -0.000000 -7.851411 2.803092 5.590757 -2.554596 5.051413 -0.100907 -5.140735 1.487728 5.106205 7.650048 0.590164 -6.814995 -3.766454 -0.790710 0.103483 0.480858 1.376319 0.441889 -1.315607 3.742233 1.922121 -0.000000 0.000000 -0.000000 -0.186274 -0.106805 -0.972374 2.261787 -2.802211 12.563843 1.599279 -1.123914 -1.334383 0.000000 -0.000000 -11.999515 -5.740981 -4.214703 -5.160437 -5.354358 -18.055110 12.321720 9.941140 -3.279115 9.883314 3.854460 3.968555 -2.532037 15.636357 0.099004 -7.512879 -8.598598 6.408237 -1.224891 -5.248984 -3.698151 -19.156343 -7.920282 -2.382140 -4.664587 -1.146906 -0.132541 -7.052866 -0.000000 -0.000000 0.000001 -0.028041 -0.062932 -0.073427 -0.000000 -0.000000 -2.171854 -0.000000 -0.000000 -17.451437 -6.728734 1.164219 -45.978402 5.508871 3.357600 -7.596003 5.311881 1.445908 -8.393055 20.881995 2.644950 -30.748149 9.260597 -6.387527 -0.244699 8.399868 -2.191332 0.434499 28.852929 -10.282466 6.483492 
